<svg xmlns="http://www.w3.org/2000/svg" width="60" height="60" viewBox="0 0 60 60">
  <g fill="none" fill-rule="evenodd">
    <circle cx="30" cy="30" r="30" fill="#3B579D"/>
    <path fill="#FFF" d="M39,14.239484 L39,19.3647779 C37.228808,19.3578113 36.1513527,19.3493437 35.7676343,19.3393753 C34.8903916,19.3165858 33.9768356,19.6866009 33.6280837,20.0746958 C33.3452937,20.3893874 33.1430698,20.8081147 33.0513087,21.7517086 C33.057025,21.745229 33.0660797,23.0701376 33.0784729,25.7264343 L38.792122,25.7264343 L38.0362648,31.417085 L33.0598832,31.417085 L33.0598832,46 L27.0448053,46 L27.0073906,31.4538464 L22,31.4538464 L22,25.6866958 L27.0073906,25.6866958 C27.007423,22.5653693 27.052358,20.6947026 27.1421956,20.0746958 C27.276952,19.1446855 27.9581826,17.1979586 28.812005,16.2817054 C30.061343,14.9410169 31.8753295,14.0050869 34.2597335,14.0000887 C35.753639,13.9969571 37.3337278,14.0767556 39,14.239484 Z"/>
  </g>
</svg>
